<svg width="15" height="12" viewBox="0 0 15 12" fill="none" xmlns="http://www.w3.org/2000/svg">
<path d="M12.7826 0H1.30435C0.958413 0 0.626647 0.137422 0.382035 0.382035C0.137422 0.626647 0 0.958413 0 1.30435V10.6957C0 11.0416 0.137422 11.3734 0.382035 11.618C0.626647 11.8626 0.958413 12 1.30435 12H12.7826C13.1285 12 13.4603 11.8626 13.7049 11.618C13.9495 11.3734 14.087 11.0416 14.087 10.6957V1.30435C14.087 0.958413 13.9495 0.626647 13.7049 0.382035C13.4603 0.137422 13.1285 0 12.7826 0ZM12.5217 10.4348H1.56522V1.56522H12.5217V10.4348ZM3.65217 3.3913C3.65217 3.18374 3.73463 2.98468 3.88139 2.83792C4.02816 2.69115 4.22722 2.6087 4.43478 2.6087C4.64234 2.6087 4.8414 2.69115 4.98817 2.83792C5.13494 2.98468 5.21739 3.18374 5.21739 3.3913C5.21739 3.87561 5.40978 4.34009 5.75224 4.68254C6.0947 5.025 6.55917 5.21739 7.04348 5.21739C7.52779 5.21739 7.99226 5.025 8.33472 4.68254C8.67717 4.34009 8.86957 3.87561 8.86957 3.3913C8.86957 3.18374 8.95202 2.98468 9.09879 2.83792C9.24555 2.69115 9.44461 2.6087 9.65217 2.6087C9.85973 2.6087 10.0588 2.69115 10.2056 2.83792C10.3523 2.98468 10.4348 3.18374 10.4348 3.3913C10.4348 4.29073 10.0775 5.15333 9.44149 5.78932C8.8055 6.42531 7.94291 6.78261 7.04348 6.78261C6.14405 6.78261 5.28146 6.42531 4.64546 5.78932C4.00947 5.15333 3.65217 4.29073 3.65217 3.3913Z" fill="#757575"/>
</svg>
