<svg width="16" height="13" viewBox="0 0 16 13" fill="none" xmlns="http://www.w3.org/2000/svg">
<path d="M14.4 0H1.6C0.72 0 0.00799999 0.73125 0.00799999 1.625L0 11.375C0 12.2688 0.72 13 1.6 13H14.4C15.28 13 16 12.2688 16 11.375V1.625C16 0.73125 15.28 0 14.4 0ZM14.08 3.45312L8.424 7.04437C8.168 7.20687 7.832 7.20687 7.576 7.04437L1.92 3.45312C1.83978 3.40739 1.76954 3.3456 1.71351 3.27149C1.65749 3.19739 1.61685 3.11251 1.59406 3.02199C1.57127 2.93147 1.5668 2.8372 1.58093 2.74487C1.59505 2.65255 1.62747 2.5641 1.67623 2.48487C1.72498 2.40564 1.78906 2.33728 1.86458 2.28393C1.9401 2.23058 2.0255 2.19335 2.1156 2.17449C2.2057 2.15563 2.29863 2.15554 2.38876 2.17421C2.4789 2.19288 2.56437 2.22993 2.64 2.28312L8 5.6875L13.36 2.28312C13.4356 2.22993 13.5211 2.19288 13.6112 2.17421C13.7014 2.15554 13.7943 2.15563 13.8844 2.17449C13.9745 2.19335 14.0599 2.23058 14.1354 2.28393C14.2109 2.33728 14.275 2.40564 14.3238 2.48487C14.3725 2.5641 14.405 2.65255 14.4191 2.74487C14.4332 2.8372 14.4287 2.93147 14.4059 3.02199C14.3832 3.11251 14.3425 3.19739 14.2865 3.27149C14.2305 3.3456 14.1602 3.40739 14.08 3.45312Z" fill="#191A1A"/>
</svg>
