<svg width="25" height="25" viewBox="0 0 25 25" fill="none" xmlns="http://www.w3.org/2000/svg">
<path d="M13.7853 0.00153794C14.6974 -0.00196222 15.6095 0.00720512 16.5214 0.0290371L16.7639 0.0377868C17.0439 0.0477864 17.3201 0.060286 17.6539 0.0752854C18.9838 0.137783 19.8913 0.347776 20.6875 0.656516C21.5125 0.974005 22.2075 1.40399 22.9024 2.09897C23.5379 2.72345 24.0297 3.47885 24.3436 4.31264C24.6524 5.10886 24.8624 6.01758 24.9249 7.34754C24.9399 7.68003 24.9524 7.95752 24.9624 8.23751L24.9699 8.48C24.9921 9.39146 25.0017 10.3032 24.9986 11.2149L24.9999 12.1474V13.7848C25.003 14.697 24.9934 15.6091 24.9711 16.521L24.9636 16.7635C24.9536 17.0435 24.9411 17.3197 24.9261 17.6534C24.8636 18.9834 24.6511 19.8909 24.3436 20.6871C24.0307 21.5218 23.5388 22.2778 22.9024 22.902C22.2774 23.5374 21.5216 24.0292 20.6875 24.3432C19.8913 24.6519 18.9838 24.8619 17.6539 24.9244C17.3201 24.9394 17.0439 24.9519 16.7639 24.9619L16.5214 24.9694C15.6095 24.9917 14.6974 25.0012 13.7853 24.9982L12.8528 24.9994H11.2166C10.3044 25.0025 9.39231 24.9929 8.48043 24.9707L8.23794 24.9632C7.94121 24.9524 7.64455 24.9399 7.34797 24.9257C6.01802 24.8632 5.11055 24.6507 4.31307 24.3432C3.47896 24.0299 2.72343 23.538 2.0994 22.902C1.46323 22.2774 0.970968 21.5215 0.656949 20.6871C0.34821 19.8909 0.138216 18.9834 0.0757186 17.6534C0.0617977 17.3568 0.049298 17.0602 0.0382199 16.7635L0.0319703 16.521C0.00892555 15.6091 -0.00149188 14.697 0.000721226 13.7848V11.2149C-0.00276736 10.3032 0.00639997 9.39146 0.0282204 8.48L0.03697 8.23751C0.0469697 7.95752 0.0594692 7.68003 0.0744687 7.34754C0.136967 6.01633 0.346959 5.11011 0.655699 4.31264C0.969904 3.47844 1.46313 2.72325 2.10065 2.10022C2.72425 1.46368 3.4793 0.970971 4.31307 0.656516C5.11055 0.347776 6.01677 0.137783 7.34797 0.0752854L8.23794 0.0377868L8.48043 0.0315371C9.39188 0.00850393 10.3036 -0.0019135 11.2153 0.000288075L13.7853 0.00153794ZM12.5003 6.25133C11.6722 6.23961 10.85 6.3926 10.0816 6.70139C9.31315 7.01019 8.61374 7.46863 8.024 8.05008C7.43427 8.63153 6.96598 9.32439 6.64635 10.0884C6.32672 10.8524 6.16213 11.6723 6.16213 12.5005C6.16213 13.3287 6.32672 14.1486 6.64635 14.9126C6.96598 15.6766 7.43427 16.3694 8.024 16.9509C8.61374 17.5323 9.31315 17.9908 10.0816 18.2996C10.85 18.6084 11.6722 18.7614 12.5003 18.7497C14.1578 18.7497 15.7475 18.0912 16.9196 16.9191C18.0916 15.7471 18.7501 14.1574 18.7501 12.4999C18.7501 10.8423 18.0916 9.25266 16.9196 8.0806C15.7475 6.90853 14.1578 6.25133 12.5003 6.25133ZM12.5003 8.75124C12.9984 8.74206 13.4934 8.83223 13.9562 9.01649C14.4191 9.20075 14.8406 9.47539 15.1962 9.82438C15.5517 10.1734 15.8342 10.5897 16.027 11.0491C16.2198 11.5085 16.3192 12.0016 16.3193 12.4999C16.3193 12.9981 16.2201 13.4913 16.0275 13.9507C15.8348 14.4101 15.5525 14.8266 15.1971 15.1757C14.8416 15.5248 14.4202 15.7996 13.9574 15.984C13.4946 16.1684 12.9997 16.2587 12.5015 16.2497C11.507 16.2497 10.5532 15.8547 9.84999 15.1514C9.14675 14.4482 8.75167 13.4944 8.75167 12.4999C8.75167 11.5053 9.14675 10.5515 9.84999 9.8483C10.5532 9.14506 11.507 8.74999 12.5015 8.74999L12.5003 8.75124ZM19.0626 4.37639C18.6593 4.39253 18.278 4.56407 17.9984 4.85509C17.7188 5.1461 17.5626 5.53402 17.5626 5.93759C17.5626 6.34115 17.7188 6.72907 17.9984 7.02008C18.278 7.3111 18.6593 7.48264 19.0626 7.49878C19.477 7.49878 19.8744 7.33417 20.1674 7.04115C20.4604 6.74814 20.625 6.35072 20.625 5.93634C20.625 5.52195 20.4604 5.12454 20.1674 4.83152C19.8744 4.5385 19.477 4.37389 19.0626 4.37389V4.37639Z" fill="#191A1A"/>
</svg>
