<svg width="11" height="19" viewBox="0 0 11 19" fill="none" xmlns="http://www.w3.org/2000/svg">
<path d="M6.64583 17.1C6.64583 16.7734 6.53364 16.4939 6.30925 16.2613C6.08485 16.0288 5.8151 15.9125 5.5 15.9125C5.1849 15.9125 4.91515 16.0288 4.69076 16.2613C4.46636 16.4939 4.35417 16.7734 4.35417 17.1C4.35417 17.4266 4.46636 17.7061 4.69076 17.9387C4.91515 18.1712 5.1849 18.2875 5.5 18.2875C5.8151 18.2875 6.08485 18.1712 6.30925 17.9387C6.53364 17.7061 6.64583 17.4266 6.64583 17.1ZM9.625 14.725V4.275C9.625 4.14635 9.57964 4.03503 9.48893 3.94102C9.39822 3.84701 9.2908 3.8 9.16667 3.8H1.83333C1.7092 3.8 1.60178 3.84701 1.51107 3.94102C1.42036 4.03503 1.375 4.14635 1.375 4.275V14.725C1.375 14.8536 1.42036 14.965 1.51107 15.059C1.60178 15.153 1.7092 15.2 1.83333 15.2H9.16667C9.2908 15.2 9.39822 15.153 9.48893 15.059C9.57964 14.965 9.625 14.8536 9.625 14.725ZM6.875 2.1375C6.875 1.97917 6.79861 1.9 6.64583 1.9H4.35417C4.20139 1.9 4.125 1.97917 4.125 2.1375C4.125 2.29583 4.20139 2.375 4.35417 2.375H6.64583C6.79861 2.375 6.875 2.29583 6.875 2.1375ZM11 1.9V17.1C11 17.6146 10.8186 18.0599 10.4557 18.4359C10.0929 18.812 9.66319 19 9.16667 19H1.83333C1.33681 19 0.907118 18.812 0.544271 18.4359C0.181424 18.0599 0 17.6146 0 17.1V1.9C0 1.38542 0.181424 0.940104 0.544271 0.564062C0.907118 0.188021 1.33681 0 1.83333 0H9.16667C9.66319 0 10.0929 0.188021 10.4557 0.564062C10.8186 0.940104 11 1.38542 11 1.9Z" fill="#191A1A"/>
</svg>
