<svg width="18" height="15" viewBox="0 0 18 15" fill="none" xmlns="http://www.w3.org/2000/svg">
<path id="Vector" d="M16.9946 4.53458L16.9946 4.53593C16.9958 5.06479 16.8921 5.58864 16.6895 6.07717L17.1514 6.26868L16.6895 6.07718C16.487 6.56571 16.1896 7.00923 15.8145 7.38209L15.8145 7.38207L15.8109 7.38574L8.83701 14.4627L8.8369 14.4628C8.82529 14.4746 8.81145 14.4839 8.79619 14.4903C8.78094 14.4967 8.76456 14.5 8.74801 14.5C8.73146 14.5 8.71508 14.4967 8.69983 14.4903C8.68457 14.4839 8.67073 14.4746 8.65912 14.4628L8.65901 14.4627L1.68516 7.38574L1.68517 7.38572L1.68236 7.38292C0.92596 6.62744 0.500652 5.60242 0.500001 4.53336C0.499349 3.4643 0.923408 2.43876 1.67889 1.68236C2.43437 0.92596 3.45938 0.500652 4.52845 0.500001C5.59751 0.499349 6.62304 0.923408 7.37944 1.67889L7.38531 1.68475L7.39137 1.69041L8.4066 2.63926L8.74739 2.95777L9.08876 2.63988L10.111 1.6879L10.1171 1.68226L10.1229 1.67643C10.6874 1.11479 11.4056 0.732975 12.1868 0.579178C12.9681 0.425381 13.7774 0.506499 14.5126 0.812293C15.2478 1.11809 15.8759 1.63484 16.3177 2.29733C16.7594 2.95982 16.995 3.73833 16.9946 4.53458Z" fill="white" stroke="black"/>
</svg>
