<svg width="14" height="11" viewBox="0 0 14 11" fill="none" xmlns="http://www.w3.org/2000/svg">
<path d="M2.85959 0.19566L0.19566 2.86292L0.139648 2.92627C0.0402101 3.05465 -0.00896575 3.2149 0.00134688 3.37695C0.0116595 3.53901 0.0807517 3.69173 0.19566 3.80647L0.259008 3.86181C0.387384 3.96125 0.547634 4.01043 0.709689 4.00011C0.871745 3.9898 1.02447 3.92071 1.1392 3.8058L2.66755 2.27412V10.0025L2.67221 10.0805C2.69117 10.2429 2.76908 10.3926 2.89115 10.5012C3.01321 10.6099 3.17093 10.67 3.33436 10.67L3.41238 10.6653C3.5747 10.6462 3.72434 10.5681 3.83288 10.4459C3.94143 10.3238 4.00132 10.166 4.00118 10.0025V2.27879L5.53019 3.8058L5.59353 3.86181C5.72757 3.96672 5.89666 4.01639 6.06614 4.00065C6.23562 3.98492 6.39267 3.90497 6.50511 3.77719C6.61755 3.6494 6.67686 3.48346 6.67091 3.31335C6.66495 3.14325 6.59417 2.98186 6.47306 2.86226L3.8018 0.194993L3.73912 0.139648C3.61074 0.0402103 3.45049 -0.00896575 3.28844 0.00134688C3.12638 0.0116595 2.97366 0.080752 2.85892 0.19566H2.85959ZM10.0025 0.00228359L9.9245 0.0069516C9.7623 0.0260607 9.61275 0.104035 9.50422 0.226086C9.39569 0.348136 9.33572 0.505774 9.3357 0.669099V8.39082L7.80669 6.86382L7.74335 6.8078C7.60926 6.70412 7.44072 6.6554 7.27199 6.67153C7.10327 6.68767 6.94702 6.76745 6.835 6.89466C6.72299 7.02187 6.66363 7.18697 6.66898 7.35638C6.67434 7.52579 6.744 7.68681 6.86382 7.80669L9.53375 10.474L9.59643 10.53C9.72481 10.6294 9.88505 10.6786 10.0471 10.6683C10.2092 10.658 10.3619 10.5889 10.4766 10.474L13.1412 7.80669L13.1972 7.74335C13.2967 7.61497 13.3458 7.45472 13.3355 7.29266C13.3252 7.13061 13.2561 6.97789 13.1412 6.86315L13.0779 6.8078C12.9495 6.70837 12.7892 6.65919 12.6272 6.6695C12.4651 6.67982 12.3124 6.74891 12.1977 6.86382L10.6693 8.39349V0.669099L10.6647 0.591749C10.6457 0.429425 10.5678 0.279714 10.4457 0.171047C10.3237 0.0623804 10.1659 0.00232432 10.0025 0.00228359Z" fill="#3F3F3F"/>
</svg>
