<svg width="14" height="15" viewBox="0 0 14 15" fill="none" xmlns="http://www.w3.org/2000/svg">
<g id="Contact">
<path id="Vector" d="M7.04534 9C7.52413 9 7.93416 8.853 8.27541 8.559C8.61608 8.2655 8.78641 7.9125 8.78641 7.5C8.78641 7.0875 8.61608 6.73425 8.27541 6.44025C7.93416 6.14675 7.52413 6 7.04534 6C6.56655 6 6.15681 6.14675 5.81614 6.44025C5.47489 6.73425 5.30427 7.0875 5.30427 7.5C5.30427 7.9125 5.47489 8.2655 5.81614 8.559C6.15681 8.853 6.56655 9 7.04534 9ZM3.5632 12H10.5275V11.5687C10.5275 11.2687 10.4332 10.9938 10.2446 10.7438C10.0559 10.4938 9.79478 10.3062 9.46108 10.1812C9.08384 10.0437 8.69588 9.9375 8.29717 9.8625C7.89788 9.7875 7.48061 9.75 7.04534 9.75C6.61007 9.75 6.1928 9.7875 5.79351 9.8625C5.3948 9.9375 5.00684 10.0437 4.6296 10.1812C4.2959 10.3062 4.03474 10.4938 3.84612 10.7438C3.65751 10.9938 3.5632 11.2687 3.5632 11.5687V12ZM12.2686 15H1.82213C1.34333 15 0.933599 14.8533 0.592929 14.5597C0.25168 14.2657 0.0810547 13.9125 0.0810547 13.5V1.5C0.0810547 1.0875 0.25168 0.73425 0.592929 0.44025C0.933599 0.14675 1.34333 0 1.82213 0H8.06822C8.30036 0 8.52177 0.0375001 8.73244 0.1125C8.94253 0.1875 9.12737 0.29375 9.28697 0.43125L13.5091 4.06875C13.6687 4.20625 13.792 4.3655 13.879 4.5465C13.9661 4.728 14.0096 4.91875 14.0096 5.11875V13.5C14.0096 13.9125 13.8393 14.2657 13.4986 14.5597C13.1574 14.8533 12.7473 15 12.2686 15Z" fill="black"/>
</g>
</svg>
