<svg width="14" height="15" viewBox="0 0 14 15" fill="none" xmlns="http://www.w3.org/2000/svg">
<g id="Log Out">
<path id="Vector" d="M3.83112 6.81818H9.18836V0.681818C9.18836 0.500989 9.13192 0.327566 9.03145 0.1997C8.93098 0.0718343 8.79472 0 8.65263 0H0.616778C0.474696 0 0.338432 0.0718343 0.237965 0.1997C0.137497 0.327566 0.0810547 0.500989 0.0810547 0.681818V14.3182C0.0810547 14.499 0.137497 14.6724 0.237965 14.8003C0.338432 14.9282 0.474696 15 0.616778 15H8.65263C8.79472 15 8.93098 14.9282 9.03145 14.8003C9.13192 14.6724 9.18836 14.499 9.18836 14.3182V8.18182H3.83112V6.81818ZM13.8528 7.01804L10.7955 3.12656L10.0378 4.09091L12.1807 6.81818H9.18836V8.18182H12.1807L10.0378 10.9091L10.7955 11.8734L13.8528 7.98196C13.9532 7.85411 14.0096 7.68075 14.0096 7.5C14.0096 7.31925 13.9532 7.14589 13.8528 7.01804Z" fill="black"/>
</g>
</svg>
