<svg width="14" height="15" viewBox="0 0 14 15" fill="none" xmlns="http://www.w3.org/2000/svg">
<g id="Orders">
<path id="Vector" d="M6.30873 3.74993H7.78195V7.49995H13.273C13.4684 7.49995 13.6557 7.42235 13.7939 7.2842C13.932 7.14606 14.0096 6.9587 14.0096 6.76334V4.48654C14.0096 4.29118 13.932 4.10382 13.7939 3.96568C13.6557 3.82754 13.4684 3.74993 13.273 3.74993H11.2701C11.5413 3.19131 11.6045 2.55429 11.4483 1.95328C11.292 1.35228 10.9266 0.826673 10.4177 0.470877C9.90874 0.115081 9.28961 -0.0475901 8.6715 0.0120829C8.0534 0.071756 7.47682 0.349863 7.04534 0.796449C6.61311 0.35231 6.03703 0.0763535 5.42005 0.0179011C4.80307 -0.0405514 4.18542 0.12231 3.67747 0.477378C3.16953 0.832445 2.80441 1.35658 2.64737 1.95609C2.49032 2.55561 2.55159 3.19143 2.82023 3.74993H0.817662C0.622301 3.74993 0.434942 3.82754 0.296802 3.96568C0.158661 4.10382 0.0810547 4.29118 0.0810547 4.48654V6.76334C0.0810547 6.9587 0.158661 7.14606 0.296802 7.2842C0.365202 7.3526 0.446405 7.40686 0.535774 7.44388C0.625144 7.4809 0.720929 7.49995 0.817662 7.49995H6.30873V3.74993ZM7.78195 2.61153C7.78195 2.38637 7.84871 2.16628 7.9738 1.97907C8.09889 1.79186 8.27668 1.64595 8.4847 1.55978C8.69271 1.47362 8.9216 1.45108 9.14243 1.495C9.36325 1.53893 9.5661 1.64735 9.7253 1.80656C9.88451 1.96577 9.99293 2.16861 10.0369 2.38944C10.0808 2.61027 10.0582 2.83916 9.97208 3.04717C9.88591 3.25519 9.74 3.43298 9.5528 3.55807C9.36559 3.68316 9.14549 3.74993 8.92034 3.74993H7.78195V2.61153ZM4.03195 2.61153C4.03195 2.30961 4.15188 2.02005 4.36537 1.80656C4.57886 1.59307 4.86842 1.47313 5.17034 1.47313C5.47226 1.47313 5.76181 1.59307 5.9753 1.80656C6.18879 2.02005 6.30873 2.30961 6.30873 2.61153V3.74993H5.17034C4.86842 3.74993 4.57886 3.62999 4.36537 3.4165C4.15188 3.20301 4.03195 2.91345 4.03195 2.61153ZM7.78195 15H12.2016C12.3969 15 12.5843 14.9224 12.7224 14.7843C12.8606 14.6461 12.9382 14.4587 12.9382 14.2634V8.57139H7.78195V15ZM1.15248 14.2634C1.15248 14.4587 1.23009 14.6461 1.36823 14.7843C1.50637 14.9224 1.69373 15 1.88909 15H6.30873V8.57139H1.15248V14.2634Z" fill="black"/>
</g>
</svg>
