<svg width="14" height="15" viewBox="0 0 14 15" fill="none" xmlns="http://www.w3.org/2000/svg">
<g id="Returns">
<path id="Vector" d="M6.90992 9H9.36677C9.58601 9 9.76992 8.928 9.91849 8.784C10.0666 8.6405 10.1406 8.4625 10.1406 8.25C10.1406 8.0375 10.0666 7.85925 9.91849 7.71525C9.76992 7.57175 9.58601 7.5 9.36677 7.5H6.90992L7.60635 6.825C7.76111 6.6875 7.83514 6.5155 7.82843 6.309C7.82224 6.103 7.74177 5.925 7.58701 5.775C7.44514 5.6375 7.26459 5.56875 7.04534 5.56875C6.82609 5.56875 6.64554 5.6375 6.50367 5.775L4.49177 7.725C4.3499 7.8625 4.27897 8.0375 4.27897 8.25C4.27897 8.4625 4.3499 8.6375 4.49177 8.775L6.50367 10.725C6.64554 10.8625 6.82609 10.9312 7.04534 10.9312C7.26459 10.9312 7.44514 10.8625 7.58701 10.725C7.72887 10.5875 7.7998 10.4157 7.7998 10.2098C7.7998 10.0033 7.72887 9.825 7.58701 9.675L6.90992 9ZM1.62867 15C1.20308 15 0.838614 14.8533 0.535281 14.5597C0.232463 14.2657 0.0810547 13.9125 0.0810547 13.5V3C0.0810547 2.5875 0.232463 2.23425 0.535281 1.94025C0.838614 1.64675 1.20308 1.5 1.62867 1.5H4.87867C5.04633 1.05 5.32697 0.6875 5.72058 0.4125C6.11367 0.1375 6.55526 0 7.04534 0C7.53542 0 7.97726 0.1375 8.37088 0.4125C8.76397 0.6875 9.04435 1.05 9.21201 1.5H12.462C12.8876 1.5 13.2521 1.64675 13.5554 1.94025C13.8582 2.23425 14.0096 2.5875 14.0096 3V13.5C14.0096 13.9125 13.8582 14.2657 13.5554 14.5597C13.2521 14.8533 12.8876 15 12.462 15H1.62867ZM7.04534 2.4375C7.213 2.4375 7.35177 2.38425 7.46165 2.27775C7.57101 2.17175 7.6257 2.0375 7.6257 1.875C7.6257 1.7125 7.57101 1.578 7.46165 1.4715C7.35177 1.3655 7.213 1.3125 7.04534 1.3125C6.87768 1.3125 6.73917 1.3655 6.6298 1.4715C6.51992 1.578 6.46498 1.7125 6.46498 1.875C6.46498 2.0375 6.51992 2.17175 6.6298 2.27775C6.73917 2.38425 6.87768 2.4375 7.04534 2.4375Z" fill="black"/>
</g>
</svg>
