<svg width="14" height="15" viewBox="0 0 14 15" fill="none" xmlns="http://www.w3.org/2000/svg">
<g id="Settings">
<path id="Vector" d="M7.79608 1.36884e-06C8.00082 1.36884e-06 8.18398 0.13725 8.25292 0.342747L8.74458 1.81048C8.92077 1.85773 9.07189 1.90498 9.20003 1.95448C9.34001 2.00848 9.52038 2.09023 9.74323 2.20197L10.8881 1.54948C10.9816 1.49616 11.0886 1.47692 11.193 1.49463C11.2975 1.51235 11.3938 1.56607 11.4675 1.64773L12.4745 2.76897C12.6082 2.91822 12.6458 3.13646 12.5706 3.32696L12.0337 4.68219C12.1228 4.85844 12.1939 5.00919 12.2482 5.13519C12.3067 5.27244 12.3791 5.46144 12.4655 5.70518L13.7169 6.28268C13.9049 6.36892 14.0212 6.57142 14.0087 6.78817L13.9168 8.3444C13.9105 8.4455 13.8768 8.54239 13.8198 8.62305C13.7629 8.70371 13.6852 8.7646 13.5964 8.79815L12.4112 9.25189C12.377 9.42814 12.3415 9.57889 12.3039 9.70638C12.2432 9.90329 12.174 10.097 12.0964 10.2869L12.6918 11.7044C12.7338 11.804 12.7451 11.9154 12.7241 12.0224C12.703 12.1295 12.6507 12.2264 12.5748 12.2991L11.4425 13.3881C11.3679 13.4595 11.2748 13.5047 11.1757 13.5175C11.0767 13.5304 10.9763 13.5104 10.8881 13.4601L9.72094 12.7941C9.53833 12.8982 9.34995 12.9901 9.15685 13.0693L8.64709 13.2748L8.19442 14.6248C8.16088 14.7237 8.10037 14.8093 8.02083 14.8705C7.94129 14.9317 7.84644 14.9655 7.74872 14.9676L6.42555 14.9998C6.32525 15.0027 6.22659 14.9719 6.14316 14.9119C6.05972 14.8519 5.99562 14.7655 5.95966 14.6646L5.42622 13.1443C5.24421 13.0774 5.064 13.0048 4.88581 12.9268C4.74006 12.8589 4.59651 12.7856 4.45543 12.7071L3.13226 13.3161C3.04507 13.3561 2.94896 13.368 2.85561 13.3503C2.76226 13.3326 2.6757 13.2861 2.60647 13.2163L1.62733 12.2271C1.55443 12.1538 1.50478 12.0576 1.48541 11.9522C1.46604 11.8468 1.47793 11.7376 1.51939 11.6399L2.08835 10.3049C2.01268 10.1468 1.94253 9.98565 1.87803 9.82188C1.80275 9.62143 1.73308 9.4186 1.66911 9.21364L0.422549 8.80489C0.321222 8.77191 0.232844 8.70382 0.17114 8.61119C0.109435 8.51857 0.0778573 8.40659 0.0813106 8.29265L0.130059 6.85192C0.133529 6.75792 0.160796 6.66672 0.208911 6.5882C0.257027 6.50968 0.32416 6.44682 0.403049 6.40642L1.7109 5.72993C1.77148 5.49068 1.82441 5.30469 1.87107 5.16894C1.93677 4.98763 2.00973 4.80946 2.08974 4.63495L1.52287 3.34496C1.47985 3.247 1.46678 3.13687 1.48555 3.0304C1.50432 2.92394 1.55396 2.82663 1.62733 2.75247L2.60508 1.75798C2.67362 1.68836 2.75938 1.64155 2.85204 1.62319C2.94471 1.60483 3.04032 1.6157 3.12738 1.65448L4.44916 2.24247C4.5954 2.13748 4.72772 2.05273 4.8475 1.98448C4.99027 1.90273 5.18108 1.81723 5.42134 1.72498L5.88097 0.344247C5.91495 0.2432 5.97706 0.15591 6.05882 0.0942985C6.14059 0.0326866 6.23802 -0.000244685 6.33781 1.36884e-06H7.79608ZM7.06207 5.26419C5.90116 5.26419 4.96032 6.26543 4.96032 7.50141C4.96032 8.7374 5.90116 9.73938 7.06207 9.73938C8.22228 9.73938 9.16312 8.7374 9.16312 7.50141C9.16312 6.26543 8.22297 5.26419 7.06207 5.26419Z" fill="black"/>
</g>
</svg>
