<svg width="17" height="17" viewBox="0 0 17 17" fill="none" xmlns="http://www.w3.org/2000/svg">
<path d="M8.49967 9.91675C8.88926 9.91675 9.22288 9.77791 9.50055 9.50025C9.77774 9.22305 9.91634 8.88966 9.91634 8.50008C9.91634 8.1105 9.77774 7.77687 9.50055 7.49921C9.22288 7.22201 8.88926 7.08341 8.49967 7.08341C8.11009 7.08341 7.7767 7.22201 7.49951 7.49921C7.22184 7.77687 7.08301 8.1105 7.08301 8.50008C7.08301 8.88966 7.22184 9.22305 7.49951 9.50025C7.7767 9.77791 8.11009 9.91675 8.49967 9.91675ZM5.66634 12.7501H11.333V12.3428C11.333 12.0595 11.2563 11.7997 11.1028 11.5636C10.9493 11.3275 10.7368 11.1504 10.4653 11.0324C10.1584 10.9025 9.84267 10.8022 9.51826 10.7313C9.19337 10.6605 8.85384 10.6251 8.49967 10.6251C8.14551 10.6251 7.80598 10.6605 7.48109 10.7313C7.15667 10.8022 6.84099 10.9025 6.53405 11.0324C6.26252 11.1504 6.05002 11.3275 5.89655 11.5636C5.74308 11.7997 5.66634 12.0595 5.66634 12.3428V12.7501ZM12.7497 15.5834H4.24967C3.86009 15.5834 3.5267 15.4448 3.24951 15.1676C2.97184 14.89 2.83301 14.5563 2.83301 14.1667V2.83341C2.83301 2.44383 2.97184 2.11021 3.24951 1.83254C3.5267 1.55535 3.86009 1.41675 4.24967 1.41675H9.33197C9.52086 1.41675 9.70101 1.45216 9.87242 1.523C10.0434 1.59383 10.1938 1.69418 10.3236 1.82404L13.759 5.25946C13.8889 5.38932 13.9893 5.53972 14.0601 5.71066C14.1309 5.88208 14.1663 6.06223 14.1663 6.25112V14.1667C14.1663 14.5563 14.0277 14.89 13.7506 15.1676C13.4729 15.4448 13.1393 15.5834 12.7497 15.5834Z" fill="white"/>
</svg>
