<svg width="13" height="14" viewBox="0 0 13 14" fill="none" xmlns="http://www.w3.org/2000/svg">
<path d="M5.6 12.1975V7.4025L1.4 4.97V9.765L5.6 12.1975ZM7 12.1975L11.2 9.765V4.97L7 7.4025V12.1975ZM5.6 13.8075L0.7 10.99C0.478333 10.8617 0.306367 10.6925 0.1841 10.4825C0.0618333 10.2725 0.000466667 10.0392 0 9.7825V4.2175C0 3.96083 0.0613667 3.7275 0.1841 3.5175C0.306833 3.3075 0.4788 3.13833 0.7 3.01L5.6 0.1925C5.82167 0.0641667 6.055 0 6.3 0C6.545 0 6.77833 0.0641667 7 0.1925L11.9 3.01C12.1217 3.13833 12.2939 3.3075 12.4166 3.5175C12.5393 3.7275 12.6005 3.96083 12.6 4.2175V9.7825C12.6 10.0392 12.5389 10.2725 12.4166 10.4825C12.2943 10.6925 12.1221 10.8617 11.9 10.99L7 13.8075C6.77833 13.9358 6.545 14 6.3 14C6.055 14 5.82167 13.9358 5.6 13.8075ZM9.1 4.5675L10.4475 3.7975L6.3 1.4L4.935 2.1875L9.1 4.5675ZM6.3 6.195L7.665 5.4075L3.5175 3.01L2.1525 3.7975L6.3 6.195Z" fill="#191A1A"/>
</svg>
