<svg width="12" height="11" viewBox="0 0 12 11" fill="none" xmlns="http://www.w3.org/2000/svg">
<path d="M6.0545 9.32152L5.99455 9.38147L5.92861 9.32152C3.0812 6.73787 1.19891 5.02943 1.19891 3.297C1.19891 2.09809 2.09809 1.19891 3.297 1.19891C4.22016 1.19891 5.11935 1.79837 5.43706 2.61362H6.55204C6.86975 1.79837 7.76894 1.19891 8.6921 1.19891C9.89101 1.19891 10.7902 2.09809 10.7902 3.297C10.7902 5.02943 8.9079 6.73787 6.0545 9.32152ZM8.6921 0C7.64905 0 6.64796 0.485559 5.99455 1.24687C5.34114 0.485559 4.34005 0 3.297 0C1.45068 0 0 1.44469 0 3.297C0 5.55695 2.03815 7.40926 5.12534 10.2087L5.99455 11L6.86376 10.2087C9.95095 7.40926 11.9891 5.55695 11.9891 3.297C11.9891 1.44469 10.5384 0 8.6921 0Z" fill="#757575"/>
</svg>
