<svg width="16" height="16" viewBox="0 0 16 16" fill="none" xmlns="http://www.w3.org/2000/svg">
<path d="M7.96504 12.553C8.23052 12.553 8.45503 12.4612 8.63859 12.2777C8.82215 12.0941 8.91367 11.8698 8.91317 11.6049C8.91317 11.3394 8.82164 11.1149 8.63859 10.9313C8.45554 10.7478 8.23102 10.6562 7.96504 10.6567C7.69957 10.6567 7.4753 10.7485 7.29225 10.9321C7.1092 11.1156 7.01742 11.3399 7.01692 11.6049C7.01692 11.8703 7.1087 12.0949 7.29225 12.2784C7.47581 12.462 7.70007 12.5535 7.96504 12.553ZM7.28239 9.63277H8.68562C8.68562 9.21559 8.73315 8.88691 8.82822 8.64672C8.92328 8.40653 9.19179 8.07784 9.63374 7.66067C9.96243 7.33198 10.2216 7.01898 10.4112 6.72164C10.6008 6.42431 10.6956 6.06731 10.6956 5.65064C10.6956 4.94271 10.4365 4.39912 9.91818 4.01987C9.39987 3.64062 8.78675 3.45099 8.07882 3.45099C7.35824 3.45099 6.77369 3.64062 6.32517 4.01987C5.87664 4.39912 5.56363 4.85422 5.38614 5.38517L6.63767 5.87819C6.70088 5.65064 6.84322 5.40413 7.0647 5.13865C7.28619 4.87318 7.62422 4.74044 8.07882 4.74044C8.48335 4.74044 8.78675 4.85118 8.98902 5.07266C9.19128 5.29415 9.29242 5.53737 9.29242 5.80234C9.29242 6.05518 9.21657 6.29233 9.06487 6.51381C8.91317 6.7353 8.72354 6.9406 8.49599 7.12972C7.93976 7.62274 7.59843 7.99567 7.47202 8.2485C7.3456 8.50134 7.28239 8.96276 7.28239 9.63277ZM8.00297 15.587C6.95371 15.587 5.96766 15.388 5.04482 14.9901C4.12198 14.5921 3.31923 14.0515 2.63658 13.3684C1.95393 12.6857 1.41363 11.883 1.01567 10.9601C0.617707 10.0373 0.418474 9.05125 0.417969 8.00199C0.417969 6.95273 0.617201 5.96668 1.01567 5.04384C1.41413 4.121 1.95444 3.31825 2.63658 2.6356C3.31923 1.95295 4.12198 1.41265 5.04482 1.01469C5.96766 0.616731 6.95371 0.417498 8.00297 0.416992C9.05223 0.416992 10.0383 0.616225 10.9611 1.01469C11.884 1.41316 12.6867 1.95346 13.3694 2.6356C14.052 3.31825 14.5926 4.121 14.991 5.04384C15.3895 5.96668 15.5885 6.95273 15.588 8.00199C15.588 9.05125 15.3887 10.0373 14.9903 10.9601C14.5918 11.883 14.0515 12.6857 13.3694 13.3684C12.6867 14.051 11.884 14.5916 10.9611 14.9901C10.0383 15.3885 9.05223 15.5875 8.00297 15.587Z" fill="white"/>
</svg>
