<svg width="28" height="22" viewBox="0 0 28 22" fill="none" xmlns="http://www.w3.org/2000/svg">
<g id="logos:mastercard" clip-path="url(#clip0_2367_2127)">
<path id="Vector" d="M5.09031 21.8907V20.4346C5.09031 19.8763 4.75409 19.5124 4.1778 19.5124C3.8897 19.5124 3.57755 19.6094 3.36142 19.925C3.19342 19.658 2.95334 19.5124 2.59317 19.5124C2.35299 19.5124 2.11302 19.5851 1.92084 19.8521V19.5609H1.41663V21.8907H1.92084V20.6044C1.92084 20.1919 2.13697 19.9977 2.47319 19.9977C2.80919 19.9977 2.97741 20.2162 2.97741 20.6044V21.8907H3.48163V20.6044C3.48163 20.1919 3.7216 19.9977 4.03375 19.9977C4.36997 19.9977 4.53797 20.2162 4.53797 20.6044V21.8907H5.09031ZM12.5575 19.5609H11.7412V18.8571H11.237V19.5609H10.7808V20.0219H11.2369V21.0898C11.2369 21.6238 11.453 21.9392 12.0293 21.9392C12.2454 21.9392 12.4854 21.8665 12.6536 21.7694L12.5094 21.3325C12.3654 21.4296 12.1974 21.4539 12.0773 21.4539C11.8372 21.4539 11.7412 21.3083 11.7412 21.0655V20.0219H12.5575V19.5609ZM16.8314 19.5123C16.5433 19.5123 16.3512 19.658 16.2311 19.8521V19.5609H15.7269V21.8907H16.2311V20.5802C16.2311 20.1919 16.3991 19.9735 16.7113 19.9735C16.8073 19.9735 16.9274 19.9978 17.0235 20.022L17.1675 19.5367C17.0715 19.5124 16.9274 19.5124 16.8314 19.5124V19.5123ZM10.3726 19.755C10.1324 19.5851 9.79628 19.5124 9.43611 19.5124C8.85992 19.5124 8.4758 19.8036 8.4758 20.2647C8.4758 20.6531 8.76389 20.8714 9.26811 20.9442L9.50819 20.9686C9.77233 21.017 9.91638 21.0898 9.91638 21.2112C9.91638 21.381 9.72431 21.5024 9.3881 21.5024C9.05199 21.5024 8.78784 21.381 8.61974 21.2598L8.37966 21.648C8.6438 21.8422 9.00397 21.9392 9.36403 21.9392C10.0364 21.9392 10.4206 21.6238 10.4206 21.1869C10.4206 20.7743 10.1084 20.5559 9.62817 20.4831L9.3881 20.4588C9.17197 20.4345 9.00397 20.3861 9.00397 20.2405C9.00397 20.0706 9.17197 19.9735 9.43611 19.9735C9.72431 19.9735 10.0124 20.0948 10.1565 20.1676L10.3726 19.755ZM23.7705 19.5124C23.4823 19.5124 23.2902 19.658 23.1701 19.8521V19.5609H22.6659V21.8907H23.1701V20.5802C23.1701 20.1919 23.3382 19.9735 23.6503 19.9735C23.7464 19.9735 23.8665 19.9978 23.9625 20.022L24.1066 19.5367C24.0105 19.5124 23.8665 19.5124 23.7705 19.5124ZM17.3356 20.7258C17.3356 21.4296 17.8158 21.9392 18.5602 21.9392C18.8963 21.9392 19.1364 21.8665 19.3764 21.6724L19.1364 21.2598C18.9443 21.4054 18.7522 21.4781 18.5361 21.4781C18.1279 21.4781 17.8398 21.1869 17.8398 20.7258C17.8398 20.289 18.1279 19.9977 18.5361 19.9735C18.7522 19.9735 18.9443 20.0462 19.1364 20.1919L19.3764 19.7794C19.1364 19.5851 18.8963 19.5124 18.5602 19.5124C17.8158 19.5124 17.3356 20.022 17.3356 20.7258ZM21.9937 20.7258V19.5609H21.4895V19.8521C21.3213 19.6338 21.0813 19.5124 20.7691 19.5124C20.1208 19.5124 19.6166 20.022 19.6166 20.7258C19.6166 21.4296 20.1208 21.9392 20.7691 21.9392C21.1052 21.9392 21.3454 21.8179 21.4895 21.5995V21.8907H21.9937V20.7258ZM20.1448 20.7258C20.1448 20.3132 20.4089 19.9735 20.8411 19.9735C21.2493 19.9735 21.5375 20.289 21.5375 20.7258C21.5375 21.1384 21.2493 21.4781 20.8411 21.4781C20.4089 21.4538 20.1448 21.1384 20.1448 20.7258ZM14.1182 19.5124C13.4459 19.5124 12.9656 19.9977 12.9656 20.7258C12.9656 21.4539 13.4458 21.9392 14.1422 21.9392C14.4783 21.9392 14.8145 21.8422 15.0787 21.6238L14.8385 21.2598C14.6464 21.4054 14.4063 21.5024 14.1663 21.5024C13.8541 21.5024 13.5419 21.3568 13.4699 20.9441H15.1747V20.7501C15.1988 19.9977 14.7666 19.5124 14.1182 19.5124ZM14.1182 19.9492C14.4303 19.9492 14.6465 20.1434 14.6944 20.5075H13.4939C13.5419 20.1919 13.7581 19.9492 14.1182 19.9492ZM26.6277 20.7258V18.6387H26.1235V19.8521C25.9553 19.6338 25.7153 19.5124 25.4031 19.5124C24.7548 19.5124 24.2506 20.022 24.2506 20.7258C24.2506 21.4296 24.7548 21.9392 25.4031 21.9392C25.7393 21.9392 25.9794 21.8179 26.1235 21.5995V21.8907H26.6277V20.7258ZM24.7789 20.7258C24.7789 20.3132 25.0429 19.9735 25.4752 19.9735C25.8834 19.9735 26.1715 20.289 26.1715 20.7258C26.1715 21.1384 25.8834 21.4781 25.4752 21.4781C25.0429 21.4538 24.7789 21.1384 24.7789 20.7258ZM7.92345 20.7258V19.5609H7.41924V19.8521C7.25113 19.6338 7.01105 19.5124 6.69889 19.5124C6.05063 19.5124 5.54641 20.022 5.54641 20.7258C5.54641 21.4296 6.05063 21.9392 6.69889 21.9392C7.03511 21.9392 7.27519 21.8179 7.41924 21.5995V21.8907H7.92345V20.7258ZM6.05063 20.7258C6.05063 20.3132 6.31477 19.9735 6.74691 19.9735C7.1551 19.9735 7.4433 20.289 7.4433 20.7258C7.4433 21.1384 7.1551 21.4781 6.74691 21.4781C6.31477 21.4538 6.05063 21.1384 6.05063 20.7258Z" fill="black"/>
<path id="Vector_2" d="M10.2045 1.86865H17.7677V15.6049H10.2045V1.86865Z" fill="#FF5F00"/>
<path id="Vector_3" d="M10.6847 8.73687C10.6847 5.94597 11.9813 3.47047 13.9741 1.86867C12.5095 0.703779 10.6608 0 8.6439 0C3.86564 0 0 3.90727 0 8.73687C0 13.5664 3.86564 17.4737 8.64379 17.4737C10.6607 17.4737 12.5094 16.77 13.9741 15.605C11.9813 14.0275 10.6847 11.5278 10.6847 8.73687Z" fill="#EB001B"/>
<path id="Vector_4" d="M27.9722 8.73687C27.9722 13.5664 24.1066 17.4737 19.3284 17.4737C17.3116 17.4737 15.4628 16.77 13.9982 15.605C16.015 14.0033 17.2876 11.5278 17.2876 8.73687C17.2876 5.94597 15.991 3.47047 13.9982 1.86867C15.4627 0.703779 17.3116 0 19.3284 0C24.1066 0 27.9722 3.93159 27.9722 8.73687Z" fill="#F79E1B"/>
</g>
<defs>
<clipPath id="clip0_2367_2127">
<rect width="28" height="22" fill="white"/>
</clipPath>
</defs>
</svg>
