<svg width="14" height="15" viewBox="0 0 14 15" fill="none" xmlns="http://www.w3.org/2000/svg">
<g clip-path="url(#clip0_2948_2495)">
<path d="M6.22772 3.74993H7.70094V7.49995H13.192C13.3874 7.49995 13.5748 7.42235 13.7129 7.2842C13.8511 7.14606 13.9287 6.9587 13.9287 6.76334V4.48654C13.9287 4.29118 13.8511 4.10382 13.7129 3.96568C13.5748 3.82754 13.3874 3.74993 13.192 3.74993H11.1891C11.4604 3.19131 11.5235 2.55429 11.3673 1.95328C11.2111 1.35228 10.8456 0.826673 10.3367 0.470877C9.82775 0.115081 9.20861 -0.0475901 8.5905 0.0120829C7.9724 0.071756 7.39582 0.349863 6.96433 0.796449C6.5321 0.35231 5.95601 0.0763535 5.33903 0.0179011C4.72205 -0.0405514 4.10439 0.12231 3.59644 0.477378C3.0885 0.832445 2.72337 1.35658 2.56633 1.95609C2.40928 2.55561 2.47056 3.19143 2.73919 3.74993H0.736612C0.54125 3.74993 0.35389 3.82754 0.215749 3.96568C0.0776071 4.10382 0 4.29118 0 4.48654V6.76334C0 6.9587 0.0776071 7.14606 0.215749 7.2842C0.284149 7.3526 0.365353 7.40686 0.454723 7.44388C0.544093 7.4809 0.639879 7.49995 0.736612 7.49995H6.22772V3.74993ZM7.70094 2.61153C7.70094 2.38637 7.76771 2.16628 7.8928 1.97907C8.01789 1.79186 8.19568 1.64595 8.4037 1.55978C8.61171 1.47362 8.8406 1.45108 9.06143 1.495C9.28226 1.53893 9.4851 1.64735 9.64431 1.80656C9.80352 1.96577 9.91194 2.16861 9.95587 2.38944C9.99979 2.61027 9.97725 2.83916 9.89109 3.04717C9.80492 3.25519 9.65901 3.43298 9.4718 3.55807C9.28459 3.68316 9.0645 3.74993 8.83934 3.74993H7.70094V2.61153ZM3.95092 2.61153C3.95092 2.30961 4.07086 2.02005 4.28435 1.80656C4.49784 1.59307 4.7874 1.47313 5.08932 1.47313C5.39124 1.47313 5.6808 1.59307 5.89429 1.80656C6.10778 2.02005 6.22772 2.30961 6.22772 2.61153V3.74993H5.08932C4.7874 3.74993 4.49784 3.62999 4.28435 3.4165C4.07086 3.20301 3.95092 2.91345 3.95092 2.61153ZM7.70094 15H12.1206C12.316 15 12.5033 14.9224 12.6415 14.7843C12.7796 14.6461 12.8572 14.4587 12.8572 14.2634V8.57139H7.70094V15ZM1.07144 14.2634C1.07144 14.4587 1.14904 14.6461 1.28718 14.7843C1.42533 14.9224 1.61269 15 1.80805 15H6.22772V8.57139H1.07144V14.2634Z" fill="white"/>
</g>
<defs>
<clipPath id="clip0_2948_2495">
<rect width="13.9287" height="15" fill="white"/>
</clipPath>
</defs>
</svg>
