<svg width="19" height="15" viewBox="0 0 19 15" fill="none" xmlns="http://www.w3.org/2000/svg">
<g clip-path="url(#clip0_2983_2493)">
<path d="M8.4375 4.6875C8.4375 6.24375 7.18125 7.5 5.625 7.5C4.06875 7.5 2.8125 6.24375 2.8125 4.6875C2.8125 3.13125 4.06875 1.875 5.625 1.875C7.18125 1.875 8.4375 3.13125 8.4375 4.6875ZM11.25 15H0V13.125C0 11.0531 2.52188 9.375 5.625 9.375C8.72813 9.375 11.25 11.0531 11.25 13.125M18.75 7.5V9.375H10.3125V7.5M18.75 3.75V5.625H10.3125V3.75M18.75 0V1.875H10.3125V0H18.75Z" fill="white"/>
</g>
<defs>
<clipPath id="clip0_2983_2493">
<rect width="18.75" height="15" fill="white"/>
</clipPath>
</defs>
</svg>
