<svg width="14" height="15" viewBox="0 0 14 15" fill="none" xmlns="http://www.w3.org/2000/svg">
<g clip-path="url(#clip0_2948_2497)">
<path d="M6.61875 9H9C9.2125 9 9.39075 8.928 9.53475 8.784C9.67825 8.6405 9.75 8.4625 9.75 8.25C9.75 8.0375 9.67825 7.85925 9.53475 7.71525C9.39075 7.57175 9.2125 7.5 9 7.5H6.61875L7.29375 6.825C7.44375 6.6875 7.5155 6.5155 7.509 6.309C7.503 6.103 7.425 5.925 7.275 5.775C7.1375 5.6375 6.9625 5.56875 6.75 5.56875C6.5375 5.56875 6.3625 5.6375 6.225 5.775L4.275 7.725C4.1375 7.8625 4.06875 8.0375 4.06875 8.25C4.06875 8.4625 4.1375 8.6375 4.275 8.775L6.225 10.725C6.3625 10.8625 6.5375 10.9312 6.75 10.9312C6.9625 10.9312 7.1375 10.8625 7.275 10.725C7.4125 10.5875 7.48125 10.4157 7.48125 10.2098C7.48125 10.0033 7.4125 9.825 7.275 9.675L6.61875 9ZM1.5 15C1.0875 15 0.73425 14.8533 0.44025 14.5597C0.14675 14.2657 0 13.9125 0 13.5V3C0 2.5875 0.14675 2.23425 0.44025 1.94025C0.73425 1.64675 1.0875 1.5 1.5 1.5H4.65C4.8125 1.05 5.0845 0.6875 5.466 0.4125C5.847 0.1375 6.275 0 6.75 0C7.225 0 7.65325 0.1375 8.03475 0.4125C8.41575 0.6875 8.6875 1.05 8.85 1.5H12C12.4125 1.5 12.7658 1.64675 13.0598 1.94025C13.3533 2.23425 13.5 2.5875 13.5 3V13.5C13.5 13.9125 13.3533 14.2657 13.0598 14.5597C12.7658 14.8533 12.4125 15 12 15H1.5ZM6.75 2.4375C6.9125 2.4375 7.047 2.38425 7.1535 2.27775C7.2595 2.17175 7.3125 2.0375 7.3125 1.875C7.3125 1.7125 7.2595 1.578 7.1535 1.4715C7.047 1.3655 6.9125 1.3125 6.75 1.3125C6.5875 1.3125 6.45325 1.3655 6.34725 1.4715C6.24075 1.578 6.1875 1.7125 6.1875 1.875C6.1875 2.0375 6.24075 2.17175 6.34725 2.27775C6.45325 2.38425 6.5875 2.4375 6.75 2.4375Z" fill="white"/>
</g>
<defs>
<clipPath id="clip0_2948_2497">
<rect width="13.5" height="15" fill="white"/>
</clipPath>
</defs>
</svg>
