<svg width="15" height="15" viewBox="0 0 15 15" fill="none" xmlns="http://www.w3.org/2000/svg">
<g clip-path="url(#clip0_2948_2501)">
<path d="M8.30877 1.36886e-06C8.52928 1.36886e-06 8.72653 0.137251 8.80078 0.342751L9.33027 1.8105C9.52003 1.85775 9.68278 1.905 9.82078 1.9545C9.97153 2.0085 10.1658 2.09025 10.4058 2.202L11.6388 1.5495C11.7394 1.49618 11.8546 1.47693 11.9671 1.49465C12.0797 1.51236 12.1834 1.56608 12.2628 1.64775L13.3473 2.769C13.4913 2.91825 13.5318 3.1365 13.4508 3.327L12.8725 4.68225C12.9685 4.8585 13.045 5.00925 13.1035 5.13525C13.1665 5.2725 13.2445 5.4615 13.3375 5.70525L14.6853 6.28275C14.8878 6.369 15.013 6.5715 14.9995 6.78825L14.9005 8.3445C14.8938 8.4456 14.8575 8.5425 14.7961 8.62316C14.7348 8.70382 14.6511 8.7647 14.5555 8.79825L13.279 9.252C13.2423 9.42825 13.204 9.579 13.1635 9.7065C13.0982 9.90341 13.0236 10.0971 12.94 10.287L13.5813 11.7045C13.6265 11.8041 13.6387 11.9156 13.616 12.0226C13.5934 12.1296 13.537 12.2266 13.4553 12.2993L12.2358 13.3883C12.1555 13.4597 12.0552 13.5048 11.9485 13.5177C11.8418 13.5306 11.7338 13.5105 11.6388 13.4603L10.3818 12.7943C10.1851 12.8984 9.98223 12.9903 9.77427 13.0695L9.22528 13.275L8.73777 14.625C8.70165 14.7239 8.63648 14.8095 8.55082 14.8707C8.46516 14.9318 8.36301 14.9657 8.25778 14.9678L6.83278 15C6.72475 15.0028 6.6185 14.9721 6.52864 14.9121C6.43879 14.852 6.36975 14.7656 6.33103 14.6648L5.75653 13.1445C5.56051 13.0775 5.36643 13.005 5.17453 12.927C5.01756 12.8591 4.86297 12.7858 4.71103 12.7073L3.28603 13.3163C3.19213 13.3563 3.08862 13.3682 2.98808 13.3505C2.88755 13.3328 2.79433 13.2862 2.71978 13.2165L1.66528 12.2273C1.58677 12.1539 1.5333 12.0578 1.51244 11.9524C1.49158 11.847 1.50438 11.7377 1.54903 11.64L2.16178 10.305C2.08028 10.1469 2.00473 9.98577 1.93528 9.822C1.8542 9.62155 1.77917 9.41871 1.71028 9.21375L0.367776 8.805C0.258651 8.77202 0.163471 8.70393 0.0970179 8.6113C0.0305645 8.51867 -0.00344348 8.40669 0.000275602 8.29275L0.0527756 6.852C0.0565125 6.758 0.0858781 6.6668 0.137697 6.58828C0.189515 6.50976 0.261814 6.4469 0.346776 6.4065L1.75528 5.73C1.82053 5.49075 1.87753 5.30475 1.92778 5.169C1.99853 4.98769 2.07711 4.80952 2.16328 4.635L1.55278 3.345C1.50644 3.24704 1.49238 3.13691 1.51259 3.03044C1.53281 2.92398 1.58626 2.82667 1.66528 2.7525L2.71828 1.758C2.79209 1.68838 2.88445 1.64157 2.98425 1.62321C3.08404 1.60485 3.18701 1.61572 3.28078 1.6545L4.70428 2.2425C4.86178 2.1375 5.00428 2.05275 5.13328 1.9845C5.28703 1.90275 5.49253 1.81725 5.75128 1.725L6.24628 0.344251C6.28287 0.243203 6.34976 0.155912 6.43782 0.0942997C6.52588 0.032687 6.6308 -0.000244688 6.73828 1.36886e-06H8.30877ZM7.51828 5.26425C6.26803 5.26425 5.25478 6.2655 5.25478 7.5015C5.25478 8.7375 6.26803 9.7395 7.51828 9.7395C8.76778 9.7395 9.78103 8.7375 9.78103 7.5015C9.78103 6.2655 8.76853 5.26425 7.51828 5.26425Z" fill="white"/>
</g>
<defs>
<clipPath id="clip0_2948_2501">
<rect width="15" height="15" fill="white"/>
</clipPath>
</defs>
</svg>
