<svg width="10" height="11" viewBox="0 0 10 11" fill="none" xmlns="http://www.w3.org/2000/svg">
<path d="M8.33333 11C7.87037 11 7.47685 10.8396 7.15278 10.5188C6.8287 10.1979 6.66667 9.80833 6.66667 9.35C6.66667 9.28583 6.6713 9.21928 6.68056 9.15035C6.68982 9.08142 6.7037 9.01963 6.72222 8.965L2.80556 6.71C2.64815 6.8475 2.47222 6.9553 2.27778 7.0334C2.08333 7.1115 1.87963 7.15037 1.66667 7.15C1.2037 7.15 0.810185 6.98958 0.486111 6.66875C0.162037 6.34792 0 5.95833 0 5.5C0 5.04167 0.162037 4.65208 0.486111 4.33125C0.810185 4.01042 1.2037 3.85 1.66667 3.85C1.87963 3.85 2.08333 3.88905 2.27778 3.96715C2.47222 4.04525 2.64815 4.15287 2.80556 4.29L6.72222 2.035C6.7037 1.98 6.68982 1.91822 6.68056 1.84965C6.6713 1.78108 6.66667 1.71453 6.66667 1.65C6.66667 1.19167 6.8287 0.802083 7.15278 0.48125C7.47685 0.160417 7.87037 0 8.33333 0C8.7963 0 9.18982 0.160417 9.51389 0.48125C9.83796 0.802083 10 1.19167 10 1.65C10 2.10833 9.83796 2.49792 9.51389 2.81875C9.18982 3.13958 8.7963 3.3 8.33333 3.3C8.12037 3.3 7.91667 3.26113 7.72222 3.1834C7.52778 3.10567 7.35185 2.99787 7.19444 2.86L3.27778 5.115C3.2963 5.17 3.31019 5.23197 3.31944 5.3009C3.3287 5.36983 3.33333 5.4362 3.33333 5.5C3.33333 5.56417 3.3287 5.63072 3.31944 5.69965C3.31019 5.76858 3.2963 5.83037 3.27778 5.885L7.19444 8.14C7.35185 8.0025 7.52778 7.89488 7.72222 7.81715C7.91667 7.73942 8.12037 7.70037 8.33333 7.7C8.7963 7.7 9.18982 7.86042 9.51389 8.18125C9.83796 8.50208 10 8.89167 10 9.35C10 9.80833 9.83796 10.1979 9.51389 10.5188C9.18982 10.8396 8.7963 11 8.33333 11Z" fill="#757575"/>
</svg>
