<svg width="20" height="16" viewBox="0 0 20 16" fill="none" xmlns="http://www.w3.org/2000/svg">
<path d="M18.0308 0H2.72644C2.26519 0 1.82283 0.183229 1.49668 0.50938C1.17053 0.83553 0.987305 1.27788 0.987305 1.73913V14.2609C0.987305 14.7221 1.17053 15.1645 1.49668 15.4906C1.82283 15.8168 2.26519 16 2.72644 16H18.0308C18.492 16 18.9344 15.8168 19.2605 15.4906C19.5867 15.1645 19.7699 14.7221 19.7699 14.2609V1.73913C19.7699 1.27788 19.5867 0.83553 19.2605 0.50938C18.9344 0.183229 18.492 0 18.0308 0ZM17.683 13.913H3.07426V2.08696H17.683V13.913ZM5.85687 4.52174C5.85687 4.24499 5.96681 3.97958 6.1625 3.78389C6.35819 3.5882 6.6236 3.47826 6.90035 3.47826C7.1771 3.47826 7.44251 3.5882 7.6382 3.78389C7.83389 3.97958 7.94383 4.24499 7.94383 4.52174C7.94383 5.16748 8.20035 5.78678 8.65696 6.24339C9.11357 6.7 9.73287 6.95652 10.3786 6.95652C11.0244 6.95652 11.6437 6.7 12.1003 6.24339C12.5569 5.78678 12.8134 5.16748 12.8134 4.52174C12.8134 4.24499 12.9233 3.97958 13.119 3.78389C13.3147 3.5882 13.5801 3.47826 13.8569 3.47826C14.1336 3.47826 14.399 3.5882 14.5947 3.78389C14.7904 3.97958 14.9003 4.24499 14.9003 4.52174C14.9003 5.72098 14.424 6.8711 13.576 7.71909C12.728 8.56708 11.5779 9.04348 10.3786 9.04348C9.17937 9.04348 8.02925 8.56708 7.18126 7.71909C6.33327 6.8711 5.85687 5.72098 5.85687 4.52174Z" fill="#191A1A"/>
</svg>
