<svg width="132" height="21" viewBox="0 0 132 21" fill="none" xmlns="http://www.w3.org/2000/svg">
<path d="M3.94014 11.9874V20.6096C3.94014 20.7063 3.9812 20.7532 4.06919 20.7532H7.3777C7.45396 20.7532 7.49209 20.7063 7.49209 20.6096L7.47742 11.9874H3.94014Z" fill="#191A1A"/>
<path d="M11.2728 0.36112H0.127147C0.111553 0.358595 0.095583 0.359806 0.0805503 0.364657C0.0655176 0.369508 0.0518528 0.377859 0.0406825 0.38902C0.0295122 0.400182 0.0211549 0.413836 0.0162999 0.428856C0.0114449 0.443877 0.0102311 0.459837 0.0127575 0.475418L0.00102499 3.75492C-0.00145553 3.77424 0.000581033 3.79387 0.00697294 3.81227C0.0133649 3.83068 0.023939 3.84735 0.0378651 3.86098C0.0517913 3.87461 0.0686897 3.88483 0.0872345 3.89084C0.105779 3.89684 0.125464 3.89847 0.144745 3.8956H3.95774V8.44411H7.47742V3.8956H11.3285C11.4048 3.8956 11.4429 3.8487 11.4429 3.75492V0.475418C11.44 0.399219 11.3784 0.36112 11.2728 0.36112Z" fill="#191A1A"/>
<path d="M23.4421 0.36112H20.1776C20.162 0.358595 20.146 0.359806 20.131 0.364657C20.116 0.369508 20.1023 0.377859 20.0911 0.38902C20.08 0.400182 20.0716 0.413836 20.0668 0.428856C20.0619 0.443877 20.0607 0.459837 20.0632 0.475418V8.44704H15.6636L15.6929 0.475418C15.6929 0.399219 15.6431 0.36112 15.5492 0.36112H12.2847C12.1909 0.36112 12.1439 0.399219 12.1439 0.475418L12.1146 20.6096C12.1146 20.7063 12.1527 20.7532 12.229 20.7532H15.5463C15.6226 20.7532 15.6607 20.7063 15.6607 20.6096V11.9962H20.0603V20.6096C20.0573 20.6292 20.059 20.6491 20.0651 20.6679C20.0713 20.6867 20.0818 20.7038 20.0958 20.7178C20.1098 20.7317 20.1269 20.7422 20.1457 20.7484C20.1645 20.7546 20.1845 20.7562 20.204 20.7532H23.4978C23.5174 20.7562 23.5374 20.7546 23.5562 20.7484C23.575 20.7422 23.5921 20.7317 23.6061 20.7178C23.6201 20.7038 23.6306 20.6867 23.6367 20.6679C23.6429 20.6491 23.6446 20.6292 23.6416 20.6096L23.5829 0.475418C23.5858 0.399219 23.5389 0.36112 23.4421 0.36112Z" fill="#191A1A"/>
<path d="M36.1511 9.57831C36.469 9.12522 36.7264 8.6326 36.9166 8.11293C37.1432 7.48949 37.2545 6.83011 37.2451 6.16692C37.2617 5.12916 36.9863 4.10761 36.4503 3.21859C35.9289 2.35804 35.1972 1.64402 34.3238 1.14363C33.4338 0.626355 32.4203 0.359027 31.3907 0.369909H25.4747C25.459 0.367516 25.443 0.368792 25.4279 0.373643C25.4128 0.378495 25.399 0.38679 25.3876 0.397868C25.3762 0.408946 25.3676 0.422508 25.3623 0.43749C25.3571 0.452471 25.3554 0.468465 25.3574 0.484208L25.3017 20.6184C25.3017 20.7151 25.3398 20.762 25.4161 20.762H28.7451C28.8214 20.762 28.8595 20.7151 28.8595 20.6184L28.8888 12.005H30.8217C31.1645 11.9982 31.5049 12.0636 31.8207 12.1969C32.1365 12.3302 32.4208 12.5284 32.6549 12.7787C32.8949 13.0191 33.0844 13.3049 33.2123 13.6194C33.3402 13.934 33.404 14.2709 33.3999 14.6104V20.677C33.3999 20.7356 33.438 20.762 33.5143 20.762H36.8374C36.8568 20.7645 36.8764 20.7625 36.8949 20.7561C36.9133 20.7497 36.93 20.7391 36.9436 20.7252C36.9572 20.7113 36.9675 20.6944 36.9735 20.6759C36.9795 20.6574 36.9811 20.6377 36.9782 20.6184L36.9518 14.6104C36.972 13.0793 36.4029 11.599 35.3621 10.4751C35.6613 10.21 35.9264 9.90879 36.1511 9.57831ZM33.0127 7.80228C32.8019 8.015 32.5512 8.18404 32.2749 8.29971C31.9985 8.41539 31.7021 8.47541 31.4025 8.47634H28.883V3.85749H31.4025C31.7067 3.85423 32.0084 3.91283 32.2892 4.02972C32.5701 4.1466 32.8242 4.31934 33.0362 4.53743C33.2553 4.74871 33.4291 5.00229 33.5472 5.28276C33.6652 5.56324 33.7249 5.86477 33.7227 6.16902C33.7205 6.47327 33.6564 6.7739 33.5344 7.05265C33.4123 7.33139 33.2349 7.58245 33.0127 7.79055V7.80228Z" fill="#191A1A"/>
<path d="M42.1404 0.36112H38.8466C38.831 0.358595 38.815 0.359806 38.8 0.364657C38.785 0.369508 38.7713 0.377859 38.7601 0.38902C38.749 0.400182 38.7406 0.413836 38.7358 0.428856C38.7309 0.443877 38.7297 0.459837 38.7322 0.475418L38.7029 20.6096C38.6999 20.6292 38.7015 20.6491 38.7077 20.6679C38.7139 20.6867 38.7244 20.7038 38.7384 20.7178C38.7524 20.7317 38.7695 20.7422 38.7883 20.7484C38.8071 20.7546 38.827 20.7562 38.8466 20.7532H42.1698C42.246 20.7532 42.2842 20.7063 42.2842 20.6096L42.2548 0.475418C42.2574 0.459837 42.2561 0.443877 42.2513 0.428856C42.2464 0.413836 42.2381 0.400182 42.2269 0.38902C42.2157 0.377859 42.2021 0.369508 42.187 0.364657C42.172 0.359806 42.156 0.358595 42.1404 0.36112Z" fill="#191A1A"/>
<path d="M53.7231 8.44704H47.7103V3.8956H53.7231C53.7387 3.89812 53.7547 3.89691 53.7697 3.89205C53.7848 3.8872 53.7984 3.87885 53.8096 3.86769C53.8208 3.85653 53.8291 3.84288 53.834 3.82785C53.8388 3.81283 53.84 3.79688 53.8375 3.7813V0.475418C53.8375 0.399219 53.7906 0.36112 53.6967 0.36112H44.2904C44.2748 0.358595 44.2588 0.359806 44.2438 0.364657C44.2287 0.369508 44.2151 0.377859 44.2039 0.38902C44.1927 0.400182 44.1844 0.413836 44.1795 0.428856C44.1747 0.443877 44.1735 0.459837 44.176 0.475418L44.1203 20.6096C44.1173 20.6292 44.1189 20.6491 44.1251 20.6679C44.1313 20.6867 44.1418 20.7038 44.1558 20.7178C44.1697 20.7317 44.1868 20.7422 44.2056 20.7484C44.2244 20.7546 44.2444 20.7562 44.264 20.7532H47.5578C47.5774 20.7562 47.5974 20.7546 47.6162 20.7484C47.635 20.7422 47.6521 20.7317 47.666 20.7178C47.68 20.7038 47.6905 20.6867 47.6967 20.6679C47.7029 20.6491 47.7045 20.6292 47.7015 20.6096V12.0255H53.7143C53.8111 12.0255 53.8581 11.9874 53.8581 11.9112L53.8287 8.59064C53.8375 8.49393 53.7994 8.44704 53.7231 8.44704Z" fill="#191A1A"/>
<path d="M58.5627 11.9962V20.6096C58.5627 20.7063 58.6038 20.7532 58.6918 20.7532H62.0003C62.0765 20.7532 62.1146 20.7063 62.1146 20.6096V11.9962H58.5627Z" fill="#191A1A"/>
<path d="M80.6956 12.0108V20.5627C80.6956 20.6594 80.7396 20.7063 80.8247 20.7063H84.1332C84.2094 20.7063 84.2476 20.6594 84.2476 20.5627L84.2329 12.005L80.6956 12.0108Z" fill="#191A1A"/>
<path d="M88.0283 0.320085H76.8826C76.8671 0.31756 76.8511 0.318775 76.836 0.323627C76.821 0.328478 76.8074 0.336828 76.7962 0.34799C76.785 0.359151 76.7766 0.372805 76.7718 0.387826C76.7669 0.402847 76.7657 0.418807 76.7683 0.434388L76.7389 3.68165C76.6303 3.40503 76.4999 3.13749 76.3488 2.88156C75.8369 2.02375 75.1205 1.30587 74.2634 0.791935C73.3978 0.277997 72.4076 0.0113822 71.4007 0.0211522C70.4099 0.015047 69.4363 0.279545 68.585 0.786076C67.7273 1.28663 67.0069 1.9914 66.4878 2.8376C66.3128 3.12734 66.1646 3.43242 66.045 3.74906V0.475418C66.045 0.399219 65.9922 0.36112 65.8866 0.36112H54.7409C54.7253 0.358595 54.7093 0.359806 54.6943 0.364657C54.6793 0.369508 54.6656 0.377859 54.6544 0.38902C54.6433 0.400182 54.6349 0.413836 54.6301 0.428856C54.6252 0.443877 54.624 0.459837 54.6265 0.475418L54.5972 3.75492C54.5947 3.77424 54.5967 3.79387 54.6031 3.81227C54.6095 3.83068 54.6201 3.84735 54.634 3.86098C54.6479 3.87461 54.6648 3.88483 54.6834 3.89084C54.7019 3.89684 54.7216 3.89847 54.7409 3.8956H58.5539V8.46169H62.0736V3.8956H65.9364C65.9629 3.897 65.989 3.88866 66.0098 3.87215C65.7945 4.4922 65.6864 5.14431 65.69 5.80058C65.6737 6.91629 65.9422 8.01775 66.4702 9.00095C67.0354 9.99182 67.8597 10.8104 68.8548 11.369L69.7729 11.876C70.0867 12.0519 70.4123 12.2306 70.7467 12.4123C71.081 12.594 71.3685 12.7552 71.6119 12.893C71.8554 13.0307 72.0548 13.148 72.1985 13.2417C73.1352 13.7771 73.6025 14.4023 73.6005 15.1174C73.6056 15.7258 73.3755 16.3126 72.9582 16.7557C72.7649 16.9773 72.5266 17.1552 72.2591 17.2775C71.9916 17.3998 71.7011 17.4638 71.407 17.4652C71.1128 17.4666 70.8217 17.4054 70.5531 17.2855C70.2845 17.1657 70.0445 16.9901 69.8492 16.7704C69.4257 16.3251 69.194 15.7316 69.2039 15.1174V13.7722C69.2039 13.6667 69.1657 13.6139 69.0895 13.6139H65.8044C65.7106 13.6139 65.6637 13.6667 65.6637 13.7722V15.1174C65.6544 16.1468 65.924 17.1594 66.4438 18.0482C66.9472 18.9247 67.6634 19.6605 68.5263 20.1876C69.392 20.72 70.3901 20.9983 71.4066 20.9906C72.4233 21.002 73.4236 20.7344 74.2986 20.2169C75.1876 19.697 75.9216 18.9495 76.4248 18.0515C76.928 17.1535 77.1823 16.1376 77.1613 15.1086C77.1992 14.0659 76.9011 13.0385 76.3107 12.1779C75.6968 11.3473 74.9065 10.6627 73.9965 10.1732L73.4949 9.90948C73.2192 9.76001 72.9083 9.59589 72.571 9.40832L71.65 8.90131C71.3714 8.74891 71.1954 8.65219 71.1192 8.60823C70.5244 8.33094 70.0097 7.90742 69.6233 7.37732C69.3351 6.89345 69.1926 6.33689 69.2127 5.7742C69.2045 5.1673 69.4364 4.58172 69.8579 4.14471C70.0521 3.92636 70.2907 3.75196 70.5578 3.63319C70.8249 3.51442 71.1143 3.454 71.4066 3.45598C71.6924 3.45323 71.9756 3.50902 72.239 3.61992C72.5023 3.73081 72.7401 3.89445 72.9377 4.10075C73.1534 4.32122 73.3219 4.58332 73.4328 4.87105C73.5438 5.15878 73.5949 5.46608 73.5829 5.7742L73.6093 8.18034C73.6073 8.19608 73.609 8.21208 73.6143 8.22706C73.6195 8.24204 73.6282 8.2556 73.6395 8.26668C73.6509 8.27776 73.6647 8.28605 73.6798 8.2909C73.6949 8.29575 73.711 8.29703 73.7267 8.29464H77.0205C77.0361 8.29716 77.0521 8.29595 77.0671 8.2911C77.0821 8.28625 77.0958 8.2779 77.107 8.26674C77.1181 8.25558 77.1265 8.24192 77.1313 8.2269C77.1362 8.21188 77.1374 8.19592 77.1349 8.18034V5.7742C77.1385 5.10331 77.0254 4.43691 76.8005 3.80474C76.8269 3.82116 76.8575 3.82932 76.8885 3.82819H80.7015V8.42652H84.2212V3.82819H88.0723C88.1486 3.82819 88.1867 3.7813 88.1867 3.68458V0.434388C88.1867 0.358189 88.1339 0.320085 88.0283 0.320085Z" fill="#191A1A"/>
<path d="M99.8838 0.320087H96.5899C96.5743 0.317562 96.5584 0.318778 96.5433 0.323629C96.5283 0.32848 96.5146 0.33683 96.5035 0.347992C96.4923 0.359153 96.4839 0.372807 96.4791 0.387828C96.4742 0.402849 96.473 0.418809 96.4756 0.43439V15.0881C96.4909 15.7092 96.2649 16.3121 95.8449 16.7704C95.6491 16.9941 95.4066 17.1722 95.1345 17.2922C94.8624 17.4122 94.5673 17.4712 94.2699 17.4649C93.9794 17.4679 93.6918 17.4073 93.4273 17.2873C93.1628 17.1673 92.9278 16.9908 92.7388 16.7704C92.3202 16.3113 92.0944 15.709 92.1082 15.0881V0.43439C92.1107 0.418809 92.1095 0.402849 92.1047 0.387828C92.0998 0.372807 92.0915 0.359153 92.0803 0.347992C92.0691 0.33683 92.0555 0.32848 92.0404 0.323629C92.0254 0.318778 92.0094 0.317562 91.9938 0.320087H88.7C88.6844 0.317562 88.6684 0.318778 88.6534 0.323629C88.6384 0.32848 88.6247 0.33683 88.6135 0.347992C88.6023 0.359153 88.594 0.372807 88.5891 0.387828C88.5843 0.402849 88.5831 0.418809 88.5856 0.43439L88.5269 15.0881C88.5187 16.1247 88.788 17.1447 89.3071 18.0423C89.8115 18.9278 90.5345 19.6694 91.4072 20.1964C92.2671 20.7272 93.2591 21.0055 94.2699 20.9994C95.3027 21.0144 96.319 20.7392 97.2029 20.2052C98.0691 19.6793 98.7884 18.9434 99.2942 18.0657C99.8107 17.1588 100.078 16.1315 100.069 15.0881L100.01 0.43439C100.013 0.41761 100.012 0.400287 100.007 0.384085C100.001 0.367883 99.9916 0.353342 99.979 0.341865C99.9663 0.330388 99.9509 0.322358 99.9342 0.318544C99.9175 0.31473 99.9002 0.315261 99.8838 0.320087Z" fill="#191A1A"/>
<path d="M110.238 1.03519C109.346 0.508431 108.322 0.249951 107.287 0.290782L101.802 0.320087C101.786 0.317562 101.77 0.318777 101.755 0.323628C101.74 0.32848 101.727 0.33683 101.716 0.347992C101.704 0.359153 101.696 0.372807 101.691 0.387828C101.686 0.402849 101.685 0.418808 101.688 0.43439L101.629 20.5686C101.626 20.5881 101.628 20.6081 101.634 20.6269C101.64 20.6457 101.65 20.6628 101.664 20.6767C101.678 20.6907 101.696 20.7012 101.714 20.7074C101.733 20.7135 101.753 20.7152 101.773 20.7122L107.029 20.6829C108.122 20.6821 109.194 20.3886 110.135 19.833C111.042 19.2958 111.8 18.5389 112.338 17.632C112.884 16.6948 113.167 15.6275 113.156 14.543V6.1171C113.165 5.07748 112.89 4.05504 112.361 3.15998C111.845 2.28329 111.114 1.55213 110.238 1.03519ZM109.607 14.5166C109.611 14.854 109.548 15.1888 109.42 15.501C109.292 15.8132 109.102 16.0964 108.862 16.3337C108.625 16.5797 108.34 16.7741 108.025 16.9048C107.709 17.0354 107.37 17.0994 107.029 17.0927H105.21L105.24 3.8106L107.293 3.78423C107.596 3.7713 107.899 3.82405 108.181 3.93886C108.462 4.05368 108.716 4.22786 108.923 4.44951C109.143 4.659 109.317 4.91106 109.436 5.19025C109.554 5.46944 109.615 5.76987 109.613 6.07314L109.607 14.5166Z" fill="#191A1A"/>
<path d="M118.169 0.320086H114.875C114.859 0.317562 114.843 0.318777 114.828 0.323628C114.813 0.328479 114.799 0.33683 114.788 0.347991C114.777 0.359153 114.769 0.372807 114.764 0.387828C114.759 0.402848 114.758 0.418808 114.76 0.43439L114.731 20.5686C114.728 20.5881 114.73 20.6081 114.736 20.6269C114.742 20.6457 114.752 20.6628 114.766 20.6767C114.78 20.6907 114.798 20.7012 114.816 20.7074C114.835 20.7135 114.855 20.7152 114.875 20.7122H118.204C118.28 20.7122 118.318 20.6653 118.318 20.5686L118.289 0.43439C118.292 0.418226 118.29 0.401614 118.285 0.386034C118.28 0.370454 118.271 0.356384 118.259 0.345076C118.247 0.333767 118.233 0.325573 118.217 0.321213C118.201 0.316854 118.185 0.316465 118.169 0.320086Z" fill="#191A1A"/>
<path d="M123.392 5.82989C123.382 5.52419 123.434 5.21961 123.545 4.93452C123.656 4.64944 123.824 4.38974 124.038 4.17109C124.235 3.9599 124.475 3.79218 124.741 3.67864C125.007 3.5651 125.294 3.50824 125.583 3.51167C125.877 3.50426 126.168 3.56041 126.437 3.67627C126.707 3.79213 126.948 3.96494 127.144 4.18281C127.555 4.63121 127.776 5.22181 127.76 5.82989V8.46756H131.312V5.82989C131.322 4.80043 131.052 3.78752 130.531 2.89914C130.034 2.03519 129.328 1.30893 128.478 0.786079C127.612 0.257358 126.613 -0.014995 125.598 0.000637023C124.588 -0.00572731 123.597 0.269318 122.735 0.794871C121.87 1.30887 121.15 2.03519 120.644 2.905C120.115 3.79008 119.841 4.80468 119.855 5.83575V8.42946H123.416L123.392 5.82989Z" fill="#191A1A"/>
<path d="M131.332 12.0079H127.78V15.1174C127.779 15.7235 127.542 16.3054 127.12 16.741C126.931 16.9653 126.696 17.146 126.43 17.2709C126.164 17.3958 125.875 17.4619 125.581 17.4647C125.288 17.4675 124.997 17.4069 124.729 17.2871C124.461 17.1672 124.222 16.991 124.029 16.7704C123.605 16.3251 123.374 15.7316 123.384 15.1174V11.9962H119.823V15.1174C119.816 16.1484 120.091 17.1618 120.618 18.0482C121.131 18.9233 121.852 19.6582 122.718 20.1876C123.588 20.7136 124.585 20.9917 125.602 20.9917C126.619 20.9917 127.617 20.7136 128.487 20.1876C129.353 19.6587 130.072 18.921 130.578 18.0423C131.095 17.1525 131.363 16.1402 131.353 15.1115L131.332 12.0079Z" fill="#191A1A"/>
</svg>
