<svg width="8" height="15" viewBox="0 0 8 15" fill="none" xmlns="http://www.w3.org/2000/svg">
<path fill-rule="evenodd" clip-rule="evenodd" d="M7.69458 6.68963C7.89014 6.9009 8 7.18741 8 7.48616C8 7.7849 7.89014 8.07141 7.69458 8.28268L1.79348 14.6561C1.69725 14.7637 1.58214 14.8495 1.45487 14.9085C1.32761 14.9676 1.19072 14.9987 1.05222 15C0.913706 15.0013 0.776345 14.9728 0.648146 14.9161C0.519946 14.8595 0.403476 14.7758 0.305532 14.67C0.207587 14.5642 0.13013 14.4384 0.0776796 14.3C0.025229 14.1615 -0.00116422 14.0132 3.93863e-05 13.8636C0.00124299 13.714 0.0300196 13.5661 0.0846901 13.4287C0.139361 13.2912 0.21883 13.1669 0.318461 13.063L5.48206 7.48616L0.318461 1.90932C0.128443 1.69683 0.0232993 1.41224 0.0256761 1.11684C0.0280528 0.821444 0.13776 0.53887 0.331168 0.329983C0.524577 0.121096 0.786212 0.00260953 1.05972 4.25897e-05C1.33323 -0.00252435 1.59674 0.111034 1.79348 0.316259L7.69458 6.68963Z" fill="#121212"/>
</svg>
